<svg width="15" height="19" viewBox="0 0 15 19" fill="none" xmlns="http://www.w3.org/2000/svg">
<path d="M0.5 4.5C0.5 2.61438 0.5 1.67157 1.08579 1.08579C1.67157 0.5 2.61438 0.5 4.5 0.5H10.5C12.3856 0.5 13.3284 0.5 13.9142 1.08579C14.5 1.67157 14.5 2.61438 14.5 4.5V14.5C14.5 16.3856 14.5 17.3284 13.9142 17.9142C13.3284 18.5 12.3856 18.5 10.5 18.5H4.5C2.61438 18.5 1.67157 18.5 1.08579 17.9142C0.5 17.3284 0.5 16.3856 0.5 14.5V4.5Z" fill="white"/>
<path fill-rule="evenodd" clip-rule="evenodd" d="M4.5 5C4.5 4.72386 4.72386 4.5 5 4.5L10 4.5C10.2761 4.5 10.5 4.72386 10.5 5C10.5 5.27614 10.2761 5.5 10 5.5L5 5.5C4.72386 5.5 4.5 5.27614 4.5 5Z" fill="black"/>
<path fill-rule="evenodd" clip-rule="evenodd" d="M4.5 8C4.5 7.72386 4.72386 7.5 5 7.5L8 7.5C8.27614 7.5 8.5 7.72386 8.5 8C8.5 8.27614 8.27614 8.5 8 8.5H5C4.72386 8.5 4.5 8.27614 4.5 8Z" fill="black"/>
<path fill-rule="evenodd" clip-rule="evenodd" d="M4.5 11C4.5 10.7239 4.72386 10.5 5 10.5H9C9.27614 10.5 9.5 10.7239 9.5 11C9.5 11.2761 9.27614 11.5 9 11.5H5C4.72386 11.5 4.5 11.2761 4.5 11Z" fill="black"/>
<path fill-rule="evenodd" clip-rule="evenodd" d="M4.5 14C4.5 13.7239 4.72386 13.5 5 13.5H8C8.27614 13.5 8.5 13.7239 8.5 14C8.5 14.2761 8.27614 14.5 8 14.5H5C4.72386 14.5 4.5 14.2761 4.5 14Z" fill="black"/>
<path d="M2.5 5C2.5 4.72386 2.72386 4.5 3 4.5C3.27614 4.5 3.5 4.72386 3.5 5C3.5 5.27614 3.27614 5.5 3 5.5C2.72386 5.5 2.5 5.27614 2.5 5Z" fill="black"/>
<path d="M2.5 8C2.5 7.72386 2.72386 7.5 3 7.5C3.27614 7.5 3.5 7.72386 3.5 8C3.5 8.27614 3.27614 8.5 3 8.5C2.72386 8.5 2.5 8.27614 2.5 8Z" fill="black"/>
<path d="M2.5 11C2.5 10.7239 2.72386 10.5 3 10.5C3.27614 10.5 3.5 10.7239 3.5 11C3.5 11.2761 3.27614 11.5 3 11.5C2.72386 11.5 2.5 11.2761 2.5 11Z" fill="black"/>
<path d="M2.5 14C2.5 13.7239 2.72386 13.5 3 13.5C3.27614 13.5 3.5 13.7239 3.5 14C3.5 14.2761 3.27614 14.5 3 14.5C2.72386 14.5 2.5 14.2761 2.5 14Z" fill="black"/>
</svg>
