<svg width="22" height="20" viewBox="0 0 22 20" fill="none" xmlns="http://www.w3.org/2000/svg">
<path fill-rule="evenodd" clip-rule="evenodd" d="M0 7.46667C0 3.23563 3.69006 0 8 0C12.3099 0 16 3.23563 16 7.46667C16 11.6977 12.3099 14.9333 8 14.9333C7.48658 14.9333 6.98381 14.8882 6.49617 14.8017C5.51177 15.5557 4.3037 16 3 16C2.85237 16 2.70585 15.9943 2.56065 15.9831C2.29888 15.9628 2.06608 15.7981 1.9468 15.5487C1.82753 15.2993 1.83914 15.0016 1.97742 14.7637C2.29476 14.2176 2.48371 13.5781 2.49899 12.8905C0.978492 11.547 0 9.62605 0 7.46667Z" fill="white"/>
<path fill-rule="evenodd" clip-rule="evenodd" d="M21 12.0667C21 8.62895 18.0018 6 14.5 6C10.9982 6 8 8.62895 8 12.0667C8 15.5044 10.9982 18.1333 14.5 18.1333C14.9172 18.1333 15.3257 18.0967 15.7219 18.0264C16.5217 18.639 17.5032 19 18.5625 19C18.6825 19 18.8015 18.9954 18.9195 18.9862C19.1322 18.9698 19.3213 18.836 19.4182 18.6333C19.5151 18.4307 19.5057 18.1888 19.3933 17.9955C19.1355 17.5518 18.982 17.0322 18.9696 16.4735C20.205 15.3819 21 13.8212 21 12.0667Z" stroke="white" stroke-width="1.5" stroke-linejoin="round"/>
</svg>
